<?xml version="1.0" encoding="UTF-8" standalone="no"?>
<!DOCTYPE svg PUBLIC "-//W3C//DTD SVG 1.1//EN"
 "http://www.w3.org/Graphics/SVG/1.1/DTD/svg11.dtd">
<!-- Generated by graphviz version 2.43.0 (0)
 -->
<!-- Title: %3 Pages: 1 -->
<svg width="1545pt" height="332pt"
 viewBox="0.00 0.00 1545.35 332.00" xmlns="http://www.w3.org/2000/svg" xmlns:xlink="http://www.w3.org/1999/xlink">
<g id="graph0" class="graph" transform="scale(1 1) rotate(0) translate(4 328)">
<title>%3</title>
<polygon fill="white" stroke="transparent" points="-4,4 -4,-328 1541.35,-328 1541.35,4 -4,4"/>
<!-- [root] local_file.abc_file (expand) -->
<g id="node1" class="node">
<title>[root] local_file.abc_file (expand)</title>
<polygon fill="none" stroke="black" points="884.37,-180 748.37,-180 748.37,-144 884.37,-144 884.37,-180"/>
<text text-anchor="middle" x="816.37" y="-158.3" font-family="Times,serif" font-size="14.00">local_file.abc_file</text>
</g>
<!-- [root] provider[&quot;registry.terraform.io/hashicorp/local&quot;] -->
<g id="node3" class="node">
<title>[root] provider[&quot;registry.terraform.io/hashicorp/local&quot;]</title>
<polygon fill="none" stroke="black" points="1207.37,-108 877.42,-90 1207.37,-72 1537.33,-90 1207.37,-108"/>
<text text-anchor="middle" x="1207.37" y="-86.3" font-family="Times,serif" font-size="14.00">provider[&quot;registry.terraform.io/hashicorp/local&quot;]</text>
</g>
<!-- [root] local_file.abc_file (expand)&#45;&gt;[root] provider[&quot;registry.terraform.io/hashicorp/local&quot;] -->
<g id="edge1" class="edge">
<title>[root] local_file.abc_file (expand)&#45;&gt;[root] provider[&quot;registry.terraform.io/hashicorp/local&quot;]</title>
<path fill="none" stroke="black" d="M884.48,-148.81C951.24,-136.85 1053.12,-118.62 1124.54,-105.83"/>
<polygon fill="black" stroke="black" points="1125.18,-109.27 1134.41,-104.06 1123.95,-102.38 1125.18,-109.27"/>
</g>
<!-- [root] random_pet.pet1 (expand) -->
<g id="node5" class="node">
<title>[root] random_pet.pet1 (expand)</title>
<polygon fill="none" stroke="black" points="598.37,-108 460.37,-108 460.37,-72 598.37,-72 598.37,-108"/>
<text text-anchor="middle" x="529.37" y="-86.3" font-family="Times,serif" font-size="14.00">random_pet.pet1</text>
</g>
<!-- [root] local_file.abc_file (expand)&#45;&gt;[root] random_pet.pet1 (expand) -->
<g id="edge2" class="edge">
<title>[root] local_file.abc_file (expand)&#45;&gt;[root] random_pet.pet1 (expand)</title>
<path fill="none" stroke="black" d="M748.36,-144.41C706.29,-134.15 652.11,-120.94 608.18,-110.22"/>
<polygon fill="black" stroke="black" points="608.94,-106.8 598.39,-107.83 607.28,-113.6 608.94,-106.8"/>
</g>
<!-- [root] random_pet.pet2 (expand) -->
<g id="node6" class="node">
<title>[root] random_pet.pet2 (expand)</title>
<polygon fill="none" stroke="black" points="754.37,-108 616.37,-108 616.37,-72 754.37,-72 754.37,-108"/>
<text text-anchor="middle" x="685.37" y="-86.3" font-family="Times,serif" font-size="14.00">random_pet.pet2</text>
</g>
<!-- [root] local_file.abc_file (expand)&#45;&gt;[root] random_pet.pet2 (expand) -->
<g id="edge3" class="edge">
<title>[root] local_file.abc_file (expand)&#45;&gt;[root] random_pet.pet2 (expand)</title>
<path fill="none" stroke="black" d="M784.33,-143.88C766.88,-134.55 745.11,-122.92 726.43,-112.94"/>
<polygon fill="black" stroke="black" points="728.01,-109.82 717.54,-108.19 724.71,-115.99 728.01,-109.82"/>
</g>
<!-- [root] var.filenm -->
<g id="node7" class="node">
<title>[root] var.filenm</title>
<polygon fill="none" stroke="black" points="853.87,-108 772.87,-108 772.87,-72 859.87,-72 859.87,-102 853.87,-108"/>
<polyline fill="none" stroke="black" points="853.87,-108 853.87,-102 "/>
<polyline fill="none" stroke="black" points="859.87,-102 853.87,-102 "/>
<text text-anchor="middle" x="816.37" y="-86.3" font-family="Times,serif" font-size="14.00">var.filenm</text>
</g>
<!-- [root] local_file.abc_file (expand)&#45;&gt;[root] var.filenm -->
<g id="edge4" class="edge">
<title>[root] local_file.abc_file (expand)&#45;&gt;[root] var.filenm</title>
<path fill="none" stroke="black" d="M816.37,-143.7C816.37,-135.98 816.37,-126.71 816.37,-118.11"/>
<polygon fill="black" stroke="black" points="819.87,-118.1 816.37,-108.1 812.87,-118.1 819.87,-118.1"/>
</g>
<!-- [root] output.abc -->
<g id="node2" class="node">
<title>[root] output.abc</title>
<polygon fill="none" stroke="black" points="723.87,-180 636.87,-180 636.87,-144 729.87,-144 729.87,-174 723.87,-180"/>
<polyline fill="none" stroke="black" points="723.87,-180 723.87,-174 "/>
<polyline fill="none" stroke="black" points="729.87,-174 723.87,-174 "/>
<text text-anchor="middle" x="683.37" y="-158.3" font-family="Times,serif" font-size="14.00">output.abc</text>
</g>
<!-- [root] output.abc&#45;&gt;[root] random_pet.pet1 (expand) -->
<g id="edge7" class="edge">
<title>[root] output.abc&#45;&gt;[root] random_pet.pet1 (expand)</title>
<path fill="none" stroke="black" d="M645.7,-143.88C624.74,-134.35 598.47,-122.41 576.2,-112.28"/>
<polygon fill="black" stroke="black" points="577.47,-109.02 566.92,-108.07 574.58,-115.39 577.47,-109.02"/>
</g>
<!-- [root] provider[&quot;registry.terraform.io/hashicorp/random&quot;] -->
<g id="node4" class="node">
<title>[root] provider[&quot;registry.terraform.io/hashicorp/random&quot;]</title>
<polygon fill="none" stroke="black" points="607.37,-36 256.97,-18 607.37,0 957.77,-18 607.37,-36"/>
<text text-anchor="middle" x="607.37" y="-14.3" font-family="Times,serif" font-size="14.00">provider[&quot;registry.terraform.io/hashicorp/random&quot;]</text>
</g>
<!-- [root] random_pet.pet1 (expand)&#45;&gt;[root] provider[&quot;registry.terraform.io/hashicorp/random&quot;] -->
<g id="edge11" class="edge">
<title>[root] random_pet.pet1 (expand)&#45;&gt;[root] provider[&quot;registry.terraform.io/hashicorp/random&quot;]</title>
<path fill="none" stroke="black" d="M548.65,-71.7C558.67,-62.7 571.05,-51.6 581.85,-41.9"/>
<polygon fill="black" stroke="black" points="584.28,-44.43 589.38,-35.14 579.6,-39.22 584.28,-44.43"/>
</g>
<!-- [root] random_pet.pet2 (expand)&#45;&gt;[root] provider[&quot;registry.terraform.io/hashicorp/random&quot;] -->
<g id="edge12" class="edge">
<title>[root] random_pet.pet2 (expand)&#45;&gt;[root] provider[&quot;registry.terraform.io/hashicorp/random&quot;]</title>
<path fill="none" stroke="black" d="M666.09,-71.7C656.07,-62.7 643.7,-51.6 632.89,-41.9"/>
<polygon fill="black" stroke="black" points="635.14,-39.22 625.36,-35.14 630.47,-44.43 635.14,-39.22"/>
</g>
<!-- [root] meta.count&#45;boundary (EachMode fixup) -->
<g id="node8" class="node">
<title>[root] meta.count&#45;boundary (EachMode fixup)</title>
<ellipse fill="none" stroke="black" cx="652.37" cy="-234" rx="222.86" ry="18"/>
<text text-anchor="middle" x="652.37" y="-230.3" font-family="Times,serif" font-size="14.00">[root] meta.count&#45;boundary (EachMode fixup)</text>
</g>
<!-- [root] meta.count&#45;boundary (EachMode fixup)&#45;&gt;[root] local_file.abc_file (expand) -->
<g id="edge5" class="edge">
<title>[root] meta.count&#45;boundary (EachMode fixup)&#45;&gt;[root] local_file.abc_file (expand)</title>
<path fill="none" stroke="black" d="M691.65,-216.23C714.24,-206.59 742.83,-194.39 766.93,-184.1"/>
<polygon fill="black" stroke="black" points="768.45,-187.26 776.27,-180.12 765.7,-180.82 768.45,-187.26"/>
</g>
<!-- [root] meta.count&#45;boundary (EachMode fixup)&#45;&gt;[root] output.abc -->
<g id="edge6" class="edge">
<title>[root] meta.count&#45;boundary (EachMode fixup)&#45;&gt;[root] output.abc</title>
<path fill="none" stroke="black" d="M660.04,-215.7C663.56,-207.73 667.83,-198.1 671.74,-189.26"/>
<polygon fill="black" stroke="black" points="674.95,-190.67 675.8,-180.1 668.55,-187.83 674.95,-190.67"/>
</g>
<!-- [root] provider[&quot;registry.terraform.io/hashicorp/local&quot;] (close) -->
<g id="node9" class="node">
<title>[root] provider[&quot;registry.terraform.io/hashicorp/local&quot;] (close)</title>
<ellipse fill="none" stroke="black" cx="1189.37" cy="-234" rx="295.95" ry="18"/>
<text text-anchor="middle" x="1189.37" y="-230.3" font-family="Times,serif" font-size="14.00">[root] provider[&quot;registry.terraform.io/hashicorp/local&quot;] (close)</text>
</g>
<!-- [root] provider[&quot;registry.terraform.io/hashicorp/local&quot;] (close)&#45;&gt;[root] local_file.abc_file (expand) -->
<g id="edge8" class="edge">
<title>[root] provider[&quot;registry.terraform.io/hashicorp/local&quot;] (close)&#45;&gt;[root] local_file.abc_file (expand)</title>
<path fill="none" stroke="black" d="M1102.86,-216.76C1039.87,-204.94 955.27,-189.07 894.35,-177.63"/>
<polygon fill="black" stroke="black" points="894.88,-174.17 884.41,-175.77 893.59,-181.05 894.88,-174.17"/>
</g>
<!-- [root] provider[&quot;registry.terraform.io/hashicorp/random&quot;] (close) -->
<g id="node10" class="node">
<title>[root] provider[&quot;registry.terraform.io/hashicorp/random&quot;] (close)</title>
<ellipse fill="none" stroke="black" cx="309.37" cy="-162" rx="309.25" ry="18"/>
<text text-anchor="middle" x="309.37" y="-158.3" font-family="Times,serif" font-size="14.00">[root] provider[&quot;registry.terraform.io/hashicorp/random&quot;] (close)</text>
</g>
<!-- [root] provider[&quot;registry.terraform.io/hashicorp/random&quot;] (close)&#45;&gt;[root] random_pet.pet1 (expand) -->
<g id="edge9" class="edge">
<title>[root] provider[&quot;registry.terraform.io/hashicorp/random&quot;] (close)&#45;&gt;[root] random_pet.pet1 (expand)</title>
<path fill="none" stroke="black" d="M362.07,-144.23C393.31,-134.29 433.1,-121.63 466.04,-111.15"/>
<polygon fill="black" stroke="black" points="467.11,-114.48 475.58,-108.12 464.99,-107.81 467.11,-114.48"/>
</g>
<!-- [root] provider[&quot;registry.terraform.io/hashicorp/random&quot;] (close)&#45;&gt;[root] random_pet.pet2 (expand) -->
<g id="edge10" class="edge">
<title>[root] provider[&quot;registry.terraform.io/hashicorp/random&quot;] (close)&#45;&gt;[root] random_pet.pet2 (expand)</title>
<path fill="none" stroke="black" d="M405.51,-144.87C461.35,-135.27 533.3,-122.51 605.84,-108.27"/>
<polygon fill="black" stroke="black" points="606.95,-111.62 616.08,-106.25 605.59,-104.75 606.95,-111.62"/>
</g>
<!-- [root] root -->
<g id="node11" class="node">
<title>[root] root</title>
<ellipse fill="none" stroke="black" cx="652.37" cy="-306" rx="58.49" ry="18"/>
<text text-anchor="middle" x="652.37" y="-302.3" font-family="Times,serif" font-size="14.00">[root] root</text>
</g>
<!-- [root] root&#45;&gt;[root] meta.count&#45;boundary (EachMode fixup) -->
<g id="edge13" class="edge">
<title>[root] root&#45;&gt;[root] meta.count&#45;boundary (EachMode fixup)</title>
<path fill="none" stroke="black" d="M652.37,-287.7C652.37,-279.98 652.37,-270.71 652.37,-262.11"/>
<polygon fill="black" stroke="black" points="655.87,-262.1 652.37,-252.1 648.87,-262.1 655.87,-262.1"/>
</g>
<!-- [root] root&#45;&gt;[root] provider[&quot;registry.terraform.io/hashicorp/local&quot;] (close) -->
<g id="edge14" class="edge">
<title>[root] root&#45;&gt;[root] provider[&quot;registry.terraform.io/hashicorp/local&quot;] (close)</title>
<path fill="none" stroke="black" d="M705.33,-298.1C787.14,-287.43 946.64,-266.64 1060.18,-251.84"/>
<polygon fill="black" stroke="black" points="1060.87,-255.28 1070.33,-250.52 1059.96,-248.34 1060.87,-255.28"/>
</g>
<!-- [root] root&#45;&gt;[root] provider[&quot;registry.terraform.io/hashicorp/random&quot;] (close) -->
<g id="edge15" class="edge">
<title>[root] root&#45;&gt;[root] provider[&quot;registry.terraform.io/hashicorp/random&quot;] (close)</title>
<path fill="none" stroke="black" d="M597.56,-299.52C549.04,-293.07 477.29,-279.51 420.37,-252 386.7,-235.73 354.03,-207.57 332.96,-187.28"/>
<polygon fill="black" stroke="black" points="335.33,-184.7 325.74,-180.2 330.42,-189.7 335.33,-184.7"/>
</g>
</g>
</svg>
